<svg xmlns="http://www.w3.org/2000/svg" viewBox="0 0 32 32" fill="none">
  <style>
    /* Dark mode default — amber accent */
    svg { color: #e8b84b; }
    /* Light mode override — violet accent */
    @media (prefers-color-scheme: light) { svg { color: #5b4fcf; } }
  </style>
  <!-- Outer diamond fill (very subtle) -->
  <path d="M16 1.5 30.5 16 16 30.5 1.5 16Z" fill="currentColor" opacity="0.08"/>
  <!-- Outer diamond stroke (outline) -->
  <path d="M16 1.5 30.5 16 16 30.5 1.5 16Z" stroke="currentColor" stroke-width="1.4" stroke-linejoin="round"/>
  <!-- Facets — lit from top-left -->
  <path d="M1.5 16 16 1.5 16 8.5Z" fill="currentColor" opacity="0.75"/>
  <path d="M1.5 16 16 8.5 8.5 16Z" fill="currentColor" opacity="0.48"/>
  <path d="M16 1.5 23.5 16 16 8.5Z" fill="currentColor" opacity="0.36"/>
  <path d="M16 1.5 30.5 16 23.5 16Z" fill="currentColor" opacity="0.16"/>
  <path d="M30.5 16 16 23.5 23.5 16Z" fill="currentColor" opacity="0.1"/>
  <path d="M30.5 16 16 30.5 16 23.5Z" fill="currentColor" opacity="0.05"/>
  <path d="M16 30.5 8.5 16 16 23.5Z" fill="currentColor" opacity="0.08"/>
  <path d="M16 30.5 1.5 16 8.5 16Z" fill="currentColor" opacity="0.22"/>
  <!-- Table diamond + center transparent hole (evenodd) -->
  <path d="M16 8.5 23.5 16 16 23.5 8.5 16Z M16 13 19 16 16 19 13 16Z" fill="currentColor" fill-rule="evenodd" opacity="0.9"/>
</svg>
